<svg width="64" height="79" viewBox="0 0 64 79" fill="none" xmlns="http://www.w3.org/2000/svg">
<path d="M53.2745 5.93952C44.684 -0.367139 38.57 -0.229939 36.2478 0.14965C35.9294 0.205197 35.6251 0.323953 35.3526 0.499026C35.0801 0.674099 34.8448 0.902002 34.6603 1.16951L13.7058 30.3201L3.4417 44.6027C2.1864 46.3498 1.45871 48.4256 1.34625 50.58L0.00370767 76.3006C-0.0191782 76.7272 0.0641581 77.1529 0.246125 77.5387C0.428091 77.9246 0.702906 78.2584 1.04554 78.5098C1.38817 78.7612 1.78773 78.9221 2.20783 78.978C2.62793 79.0339 3.05522 78.9829 3.45077 78.8297L27.29 69.6372C29.2992 68.8597 31.0454 67.5106 32.3063 65.7544L40.67 54.1152L63.5114 22.335C63.711 22.0593 63.854 21.7461 63.9319 21.4139C64.0098 21.0817 64.021 20.7371 63.9649 20.4005C63.5839 17.9949 61.7561 12.1593 53.2745 5.93952ZM27.3625 64.4968L18.0963 68.1051C17.9214 68.1746 17.7288 68.1844 17.5478 68.1332C17.3669 68.082 17.2074 67.9726 17.0939 67.8216C15.7037 66.0214 14.0613 64.4346 12.2181 63.111C10.4008 61.754 8.39985 60.6667 6.27646 59.8822C6.10007 59.8175 5.94915 59.6971 5.84616 59.5389C5.74318 59.3806 5.69366 59.1931 5.70497 59.0042L6.25832 49.0068L8.74837 45.5539C8.74837 45.5539 14.3226 44.781 21.5978 50.1181C28.8638 55.4507 29.8571 61.0393 29.8571 61.0393L27.3625 64.4968Z" fill="#3A3A3A"/>
</svg>
