<svg width="75" height="67" viewBox="0 0 75 67" fill="none" xmlns="http://www.w3.org/2000/svg">
<path d="M18.75 33.5C18.75 32.5766 18.9319 31.6623 19.2852 30.8093C19.6386 29.9562 20.1565 29.1811 20.8094 28.5282C21.4623 27.8752 22.2374 27.3573 23.0905 27.004C23.9436 26.6506 24.8579 26.4688 25.7812 26.4688C26.7046 26.4688 27.6189 26.6506 28.472 27.004C29.3251 27.3573 30.1002 27.8752 30.7531 28.5282C31.406 29.1811 31.9239 29.9562 32.2773 30.8093C32.6306 31.6623 32.8125 32.5766 32.8125 33.5C32.8125 35.3648 32.0717 37.1532 30.7531 38.4718C29.4345 39.7905 27.6461 40.5312 25.7812 40.5312C23.9164 40.5312 22.128 39.7905 20.8094 38.4718C19.4908 37.1532 18.75 35.3648 18.75 33.5ZM53.9062 26.4688C52.0414 26.4688 50.253 27.2095 48.9344 28.5282C47.6158 29.8468 46.875 31.6352 46.875 33.5C46.875 35.3648 47.6158 37.1532 48.9344 38.4718C50.253 39.7905 52.0414 40.5312 53.9062 40.5312C55.7711 40.5312 57.5595 39.7905 58.8781 38.4718C60.1967 37.1532 60.9375 35.3648 60.9375 33.5C60.9375 31.6352 60.1967 29.8468 58.8781 28.5282C57.5595 27.2095 55.7711 26.4688 53.9062 26.4688Z" fill="#3A3A3A"/>
<path d="M0 3.03125C0 2.40965 0.24693 1.81351 0.686468 1.37397C1.12601 0.93443 1.72215 0.6875 2.34375 0.6875H7.03125C7.65285 0.6875 8.24899 0.93443 8.68853 1.37397C9.12807 1.81351 9.375 2.40965 9.375 3.03125V14.75H72.6562C73.2779 14.75 73.874 14.9969 74.3135 15.4365C74.7531 15.876 75 16.4721 75 17.0938V49.9062C75 50.5279 74.7531 51.124 74.3135 51.5635C73.874 52.0031 73.2779 52.25 72.6562 52.25H9.375V63.9688C9.375 64.5904 9.12807 65.1865 8.68853 65.626C8.24899 66.0656 7.65285 66.3125 7.03125 66.3125C6.40965 66.3125 5.81351 66.0656 5.37397 65.626C4.93443 65.1865 4.6875 64.5904 4.6875 63.9688V5.375H2.34375C1.72215 5.375 1.12601 5.12807 0.686468 4.68853C0.24693 4.24899 0 3.65285 0 3.03125ZM25.7812 21.7812C22.6732 21.7812 19.6925 23.0159 17.4948 25.2136C15.2972 27.4113 14.0625 30.392 14.0625 33.5C14.0625 36.608 15.2972 39.5887 17.4948 41.7864C19.6925 43.9841 22.6732 45.2188 25.7812 45.2188C28.8893 45.2188 31.87 43.9841 34.0677 41.7864C36.2654 39.5887 37.5 36.608 37.5 33.5C37.5 30.392 36.2654 27.4113 34.0677 25.2136C31.87 23.0159 28.8893 21.7812 25.7812 21.7812ZM42.1875 33.5C42.1875 36.608 43.4221 39.5887 45.6198 41.7864C47.8175 43.9841 50.7982 45.2188 53.9062 45.2188C57.0143 45.2188 59.995 43.9841 62.1927 41.7864C64.3904 39.5887 65.625 36.608 65.625 33.5C65.625 30.392 64.3904 27.4113 62.1927 25.2136C59.995 23.0159 57.0143 21.7812 53.9062 21.7812C50.7982 21.7812 47.8175 23.0159 45.6198 25.2136C43.4221 27.4113 42.1875 30.392 42.1875 33.5Z" fill="#3A3A3A"/>
<path d="M14.0625 54.5938H30.4688V59.2812C30.4688 59.9029 30.2218 60.499 29.7823 60.9385C29.3427 61.3781 28.7466 61.625 28.125 61.625H16.4062C15.7846 61.625 15.1885 61.3781 14.749 60.9385C14.3094 60.499 14.0625 59.9029 14.0625 59.2812V54.5938ZM32.8125 59.2812V54.5938H51.5625V59.2812C51.5625 59.9029 51.3156 60.499 50.876 60.9385C50.4365 61.3781 49.8404 61.625 49.2188 61.625H35.1562C34.5346 61.625 33.9385 61.3781 33.499 60.9385C33.0594 60.499 32.8125 59.9029 32.8125 59.2812Z" fill="#3A3A3A"/>
</svg>
