<svg width="79" height="79" viewBox="0 0 79 79" fill="none" xmlns="http://www.w3.org/2000/svg">
<path d="M39.4894 26.3277C32.2364 26.3277 26.3174 32.2468 26.3174 39.5C26.3174 46.7532 32.2364 52.6723 39.4894 52.6723C46.7424 52.6723 52.6614 46.7532 52.6614 39.5C52.6614 32.2468 46.7424 26.3277 39.4894 26.3277ZM78.9956 39.5C78.9956 34.0453 79.045 28.64 78.7387 23.1952C78.4324 16.871 76.9897 11.2582 72.3651 6.63354C67.7307 1.99904 62.1279 0.566195 55.8037 0.259863C50.3491 -0.0464693 44.944 0.00293925 39.4993 0.00293925C34.0447 0.00293925 28.6395 -0.0464693 23.1948 0.259863C16.8706 0.566195 11.258 2.00892 6.63342 6.63354C1.999 11.2681 0.566184 16.871 0.259858 23.1952C-0.0464684 28.6499 0.00293919 34.0552 0.00293919 39.5C0.00293919 44.9448 -0.0464684 50.36 0.259858 55.8048C0.566184 62.129 2.00888 67.7418 6.63342 72.3665C11.2678 77.001 16.8706 78.4338 23.1948 78.7401C28.6494 79.0465 34.0546 78.9971 39.4993 78.9971C44.9538 78.9971 50.359 79.0465 55.8037 78.7401C62.1279 78.4338 67.7406 76.9911 72.3651 72.3665C76.9995 67.7319 78.4324 62.129 78.7387 55.8048C79.0549 50.36 78.9956 44.9547 78.9956 39.5ZM39.4894 59.7673C28.2739 59.7673 19.2224 50.7157 19.2224 39.5C19.2224 28.2843 28.2739 19.2327 39.4894 19.2327C50.7049 19.2327 59.7563 28.2843 59.7563 39.5C59.7563 50.7157 50.7049 59.7673 39.4894 59.7673ZM60.5864 23.1359C57.9678 23.1359 55.8531 21.0213 55.8531 18.4026C55.8531 15.784 57.9678 13.6693 60.5864 13.6693C63.205 13.6693 65.3196 15.784 65.3196 18.4026C65.3204 19.0244 65.1985 19.6403 64.9609 20.2149C64.7233 20.7895 64.3747 21.3116 63.935 21.7513C63.4953 22.191 62.9732 22.5396 62.3986 22.7772C61.824 23.0148 61.2082 23.1367 60.5864 23.1359Z" fill="#3A3A3A"/>
</svg>
