<svg width="101" height="144" viewBox="0 0 101 144" fill="none" xmlns="http://www.w3.org/2000/svg">
<path fill-rule="evenodd" clip-rule="evenodd" d="M20.6399 19.9059C21.5953 20.8616 22.132 22.1576 22.132 23.5089C22.132 24.8602 21.5953 26.1562 20.6399 27.1119C17.327 30.4245 14.699 34.3572 12.906 38.6856C11.113 43.0139 10.1902 47.653 10.1902 52.3379C10.1902 57.0229 11.113 61.662 12.906 65.9903C14.699 70.3187 17.327 74.2514 20.6399 77.564C21.1267 78.0341 21.5149 78.5965 21.782 79.2182C22.0491 79.84 22.1896 80.5087 22.1955 81.1854C22.2014 81.862 22.0725 82.5331 21.8162 83.1594C21.56 83.7857 21.1816 84.3547 20.7031 84.8332C20.2246 85.3117 19.6556 85.6901 19.0293 85.9463C18.403 86.2026 17.7319 86.3315 17.0553 86.3256C16.3786 86.3197 15.7099 86.1792 15.0881 85.9121C14.4664 85.645 13.904 85.2568 13.4339 84.77C9.17485 80.511 5.79636 75.4548 3.49136 69.8901C1.18637 64.3254 0 58.3612 0 52.3379C0 46.3147 1.18637 40.3505 3.49136 34.7858C5.79636 29.2211 9.17485 24.1649 13.4339 19.9059C14.3896 18.9505 15.6856 18.4138 17.0369 18.4138C18.3882 18.4138 19.6842 18.9505 20.6399 19.9059ZM35.057 34.3179C36.0124 35.2735 36.5491 36.5695 36.5491 37.9209C36.5491 39.2722 36.0124 40.5682 35.057 41.5239C33.6371 42.9436 32.5107 44.6291 31.7422 46.4841C30.9737 48.3392 30.5782 50.3275 30.5782 52.3354C30.5782 54.3433 30.9737 56.3316 31.7422 58.1867C32.5107 60.0417 33.6371 61.7272 35.057 63.1469C35.5302 63.6204 35.9054 64.1825 36.1614 64.801C36.4173 65.4195 36.5489 66.0824 36.5487 66.7517C36.5484 67.4211 36.4164 68.0839 36.16 68.7022C35.9036 69.3205 35.5279 69.8823 35.0545 70.3555C34.581 70.8286 34.0189 71.2039 33.4004 71.4598C32.7819 71.7158 32.119 71.8474 31.4497 71.8471C30.7803 71.8469 30.1175 71.7148 29.4992 71.4585C28.8808 71.2021 28.3191 70.8264 27.8459 70.3529C23.069 65.5746 20.3855 59.0946 20.3855 52.3379C20.3855 45.5813 23.069 39.1013 27.8459 34.323C28.3192 33.8491 28.8813 33.4732 29.4999 33.2168C30.1186 32.9603 30.7817 32.8283 31.4515 32.8283C32.1212 32.8283 32.7843 32.9603 33.403 33.2168C34.0217 33.4732 34.5837 33.8491 35.057 34.323V34.3179Z" fill="#3A3A3A"/>
<path d="M83.9631 18.4138C82.6118 18.4138 81.3158 18.9505 80.3601 19.9059C79.4047 20.8616 78.868 22.1576 78.868 23.5089C78.868 24.8602 79.4047 26.1562 80.3601 27.1119C83.673 30.4245 86.301 34.3572 88.094 38.6856C89.887 43.0139 90.8098 47.653 90.8098 52.3379C90.8098 57.0229 89.887 61.662 88.094 65.9903C86.301 70.3187 83.673 74.2514 80.3601 77.564C79.8734 78.0341 79.4851 78.5965 79.218 79.2182C78.9509 79.84 78.8104 80.5087 78.8045 81.1854C78.7986 81.862 78.9275 82.5331 79.1838 83.1594C79.44 83.7857 79.8184 84.3547 80.2969 84.8332C80.7754 85.3117 81.3444 85.6901 81.9707 85.9463C82.597 86.2026 83.2681 86.3315 83.9448 86.3256C84.6214 86.3197 85.2901 86.1792 85.9119 85.9121C86.5336 85.645 87.096 85.2568 87.5661 84.77C91.8252 80.511 95.2036 75.4548 97.5086 69.8901C99.8136 64.3254 101 58.3612 101 52.3379C101 46.3147 99.8136 40.3505 97.5086 34.7858C95.2036 29.2211 91.8252 24.1649 87.5661 19.9059C86.6104 18.9505 85.3144 18.4138 83.9631 18.4138Z" fill="#3A3A3A"/>
<path d="M67.597 33.2117C66.9783 33.4682 66.4163 33.844 65.943 34.3179C65.4692 34.7912 65.0933 35.3532 64.8368 35.9719C64.5804 36.5905 64.4484 37.2537 64.4484 37.9234C64.4484 38.5931 64.5804 39.2563 64.8368 39.8749C65.0933 40.4936 65.4692 41.0557 65.943 41.529C68.8092 44.396 70.4193 48.284 70.4193 52.3379C70.4193 56.3919 68.8092 60.2799 65.943 63.1469C64.9868 64.1032 64.4495 65.4001 64.4495 66.7525C64.4495 68.1048 64.9868 69.4018 65.943 70.358C66.8993 71.3143 68.1962 71.8515 69.5486 71.8515C70.9009 71.8515 72.1978 71.3143 73.1541 70.358C75.5209 67.9918 77.3984 65.1825 78.6794 62.0906C79.9604 58.9987 80.6197 55.6847 80.6197 52.3379C80.6197 48.9912 79.9604 45.6772 78.6794 42.5853C77.3984 39.4934 75.5209 36.6841 73.1541 34.3179C72.6808 33.844 72.1188 33.4682 71.5001 33.2117C70.8814 32.9552 70.2183 32.8232 69.5486 32.8232C68.8788 32.8232 68.2157 32.9552 67.597 33.2117Z" fill="#3A3A3A"/>
<path d="M54.1221 32.5561L53.3979 75.493L48.0712 75.4055L48.7573 32.468L54.1221 32.5561ZM57.3772 18.5851L57.414 16.3403L54.4082 16.2909L54.4482 13.8558L49.0454 13.7671L49.0054 16.2022L45.9996 16.1528L45.9628 18.3976C39.9412 18.9077 34.0181 20.3708 28.4605 22.7533L30.205 27.7676C35.3103 26.272 40.5005 25.4058 45.8522 25.1321L45.8209 27.0345L57.2353 27.222L57.2666 25.3196C62.6064 25.7688 67.7653 26.805 72.8188 28.4674L74.7269 23.5131C69.2506 20.9494 63.3788 19.2926 57.3772 18.5851Z" fill="#0D6EFD"/>
<path d="M2.25 124V91.8H10.25L22.4 108.85V91.8H31.8V124H23.75L11.65 107V124H2.25ZM46.8332 124.5C44.6665 124.5 42.6165 124.333 40.6832 124C38.7499 123.633 37.0999 123.133 35.7332 122.5V114.75C37.2332 115.45 38.8999 116.017 40.7332 116.45C42.5665 116.883 44.2832 117.1 45.8832 117.1C47.5499 117.1 48.7999 116.967 49.6332 116.7C50.4999 116.4 50.9332 115.75 50.9332 114.75C50.9332 114.05 50.6832 113.5 50.1832 113.1C49.7165 112.7 48.9665 112.333 47.9332 112C46.9332 111.667 45.6165 111.25 43.9832 110.75C41.8165 110.05 40.0999 109.283 38.8332 108.45C37.5665 107.617 36.6499 106.6 36.0832 105.4C35.5499 104.2 35.2832 102.733 35.2832 101C35.2832 97.8333 36.3999 95.4333 38.6332 93.8C40.8999 92.1333 44.2499 91.3 48.6832 91.3C50.4499 91.3 52.2665 91.45 54.1332 91.75C56.0332 92.05 57.5665 92.3833 58.7332 92.75V100.55C57.1665 99.9167 55.6665 99.4667 54.2332 99.2C52.7999 98.9333 51.4499 98.8 50.1832 98.8C48.7165 98.8 47.4665 98.9167 46.4332 99.15C45.3999 99.3833 44.8832 99.9833 44.8832 100.95C44.8832 101.783 45.3165 102.4 46.1832 102.8C47.0832 103.167 48.6665 103.65 50.9332 104.25C53.5665 104.95 55.5665 105.8 56.9332 106.8C58.3332 107.8 59.2832 108.967 59.7832 110.3C60.2832 111.6 60.5332 113.083 60.5332 114.75C60.5332 117.683 59.3999 120.05 57.1332 121.85C54.8665 123.617 51.4332 124.5 46.8332 124.5ZM64.0176 124V91.8H73.1676L81.1676 108.15L89.1176 91.8H98.2176V124H88.8176V107.9L83.6676 118.5H78.6176L73.4176 107.9V124H64.0176Z" fill="#0D6EFD"/>
</svg>
