<svg width="98" height="79" viewBox="0 0 98 79" fill="none" xmlns="http://www.w3.org/2000/svg">
<path d="M97.1786 9.37084C93.6049 10.9544 89.7659 12.0244 85.73 12.508C89.8943 10.0162 93.0098 6.09446 94.4951 1.47449C90.5827 3.79841 86.3007 5.4342 81.8353 6.31074C78.8325 3.10454 74.8551 0.979424 70.5207 0.265319C66.1864 -0.448786 61.7375 0.288077 57.8648 2.36151C53.9921 4.43493 50.9123 7.72892 49.1035 11.7321C47.2948 15.7352 46.8582 20.2235 47.8617 24.5002C39.9341 24.1021 32.1787 22.0416 25.0989 18.4523C18.0192 14.863 11.7732 9.8252 6.76647 3.66578C5.05452 6.61889 4.07015 10.0428 4.07015 13.6892C4.06824 16.9719 4.87662 20.2042 6.42356 23.0995C7.9705 25.9948 10.2082 28.4635 12.938 30.2865C9.77211 30.1858 6.67605 29.3304 3.90752 27.7914V28.0482C3.9072 32.6522 5.49977 37.1145 8.415 40.678C11.3302 44.2415 15.3886 46.6867 19.9014 47.5986C16.9645 48.3934 13.8853 48.5105 10.8965 47.941C12.1698 51.9025 14.65 55.3667 17.9898 57.8486C21.3297 60.3304 25.3621 61.7058 29.5225 61.7821C22.46 67.3263 13.7379 70.3336 4.75921 70.3204C3.16873 70.3208 1.5796 70.2279 0 70.0422C9.11387 75.9021 19.7231 79.012 30.5582 79C67.2367 79 87.2878 48.6215 87.2878 22.2746C87.2878 21.4187 87.2664 20.5541 87.2279 19.6982C91.1281 16.8776 94.4948 13.3849 97.1701 9.38368L97.1786 9.37084Z" fill="#3A3A3A"/>
</svg>
